<?xml version="1.0" standalone="no"?>
<!DOCTYPE svg PUBLIC "-//W3C//DTD SVG 20010904//EN"
 "http://www.w3.org/TR/2001/REC-SVG-20010904/DTD/svg10.dtd">
<svg version="1.0" xmlns="http://www.w3.org/2000/svg"
 width="200.000000pt" height="200.000000pt" viewBox="0 0 200.000000 200.000000"
 preserveAspectRatio="xMidYMid meet">
<metadata>
Created by potrace 1.11, written by Peter Selinger 2001-2013
</metadata>
<g transform="translate(0.000000,200.000000) scale(0.100000,-0.100000)"
fill="#000000" stroke="none">
<path d="M909 1736 c-2 -2 -48 -6 -101 -10 -250 -16 -221 -8 -473 -133 l-230
-114 180 6 180 6 130 68 c201 105 325 172 325 177 0 5 -5 5 -11 0z m-383 -141
c-28 -13 -54 -21 -59 -18 -14 9 53 42 83 42 20 -1 15 -5 -24 -24z"/>
<path d="M885 1676 c-33 -18 -132 -72 -220 -120 -88 -48 -164 -91 -169 -96 -6
-6 169 -564 190 -608 2 -4 68 34 154 89 71 45 76 52 99 111 41 110 79 188 91
188 6 0 26 6 45 14 l35 15 -61 178 c-80 238 -90 263 -97 263 -4 0 -34 -15 -67
-34z m60 -90 c13 -13 22 -32 20 -42 -2 -11 -4 -25 -4 -31 -1 -7 -12 -20 -26
-29 -52 -34 -101 24 -75 87 11 24 23 33 53 38 4 0 19 -10 32 -23z m-167 -496
c44 -41 12 -133 -42 -124 -48 7 -67 84 -31 124 23 25 45 25 73 0z"/>
<path d="M287 1453 c-1 -1 -40 -3 -87 -4 -47 -1 -88 -3 -92 -5 -3 -2 7 -39 23
-81 17 -43 36 -96 44 -118 8 -22 41 -110 73 -195 l59 -155 39 -7 c21 -3 65 -9
96 -13 31 -3 65 -7 75 -9 10 -2 45 -7 77 -11 55 -7 59 -6 52 11 -5 11 -52 147
-105 304 l-97 285 -78 0 c-43 0 -78 -1 -79 -2z m129 -71 c43 -30 58 -104 25
-122 -16 -8 -23 -5 -40 15 -26 34 -36 82 -21 100 14 17 20 18 36 7z m-182 -27
c17 -26 22 -80 7 -89 -17 -11 -39 5 -55 38 -29 62 12 106 48 51z m125 -325
c19 -32 17 -75 -3 -83 -27 -11 -56 33 -56 82 0 42 33 42 59 1z m201 -20 c16
-29 12 -90 -5 -96 -22 -9 -43 13 -55 57 -14 51 1 85 30 69 11 -6 24 -19 30
-30z"/>
<path d="M1231 1270 c-68 -27 -134 -51 -147 -54 -13 -4 -24 -10 -24 -14 0 -4
100 -62 223 -130 122 -67 245 -136 273 -152 l51 -30 142 71 c79 39 141 72 139
74 -5 5 -83 47 -268 145 -96 51 -194 104 -218 116 -23 13 -44 24 -45 23 -1 0
-58 -23 -126 -49z m189 -18 c29 -11 56 -39 47 -48 -11 -11 -85 8 -106 27 -38
36 -7 47 59 21z m-154 -87 c13 -8 24 -20 24 -25 0 -25 -108 2 -126 32 -19 30
52 26 102 -7z m311 3 c45 -20 56 -35 36 -46 -18 -11 -57 -2 -91 19 -50 31 -5
53 55 27z m-153 -86 c39 -23 45 -42 12 -42 -31 0 -91 23 -100 39 -21 33 34 34
88 3z m316 2 c28 -11 40 -22 38 -33 -7 -31 -118 1 -118 34 0 20 30 19 80 -1z
m-162 -84 c55 -25 59 -55 6 -47 -44 7 -84 32 -84 52 0 20 26 18 78 -5z"/>
<path d="M1021 1168 c-5 -13 -56 -140 -115 -282 -58 -142 -106 -262 -106 -267
0 -4 57 -42 128 -85 70 -42 196 -119 281 -171 85 -52 157 -91 161 -86 4 4 19
42 33 83 14 41 55 161 92 265 72 206 88 255 83 259 -5 5 -139 82 -193 111 -27
16 -85 48 -128 72 -42 24 -99 55 -125 70 -26 14 -56 32 -67 39 -27 19 -34 18
-44 -8z m104 -113 c14 -13 25 -36 25 -50 0 -28 -40 -75 -64 -75 -48 0 -83 51
-66 97 21 56 66 68 105 28z m337 -182 c52 -59 10 -145 -61 -126 -27 7 -52 53
-46 83 10 54 75 80 107 43z m-233 -89 c23 -29 26 -55 11 -84 -27 -50 -94 -48
-115 3 -32 78 54 144 104 81z m-214 -113 c14 -65 -56 -111 -102 -65 -25 25
-29 54 -12 85 26 49 102 36 114 -20z m328 -162 c56 -69 -35 -158 -100 -97 -52
48 -8 135 62 122 11 -2 28 -13 38 -25z"/>
<path d="M1750 938 l-135 -71 -59 -166 c-32 -91 -78 -222 -102 -290 -25 -68
-44 -127 -42 -131 2 -5 68 38 148 95 l145 102 52 144 c29 79 66 182 84 229 17
47 37 102 44 123 8 20 11 37 7 36 -4 0 -68 -32 -142 -71z m90 -15 c0 -23 -42
-95 -57 -101 -18 -5 -16 23 3 60 29 55 54 75 54 41z m-140 -218 c0 -23 -24
-67 -49 -89 -18 -16 -21 -17 -21 -3 0 37 40 107 62 107 4 0 8 -7 8 -15z m-150
-215 c0 -19 -27 -76 -44 -93 -27 -27 -38 -10 -21 31 23 54 65 94 65 62z"/>
</g>
</svg>
